<?xml version="1.0" standalone="no"?>
<!DOCTYPE svg PUBLIC "-//W3C//DTD SVG 20010904//EN"
 "http://www.w3.org/TR/2001/REC-SVG-20010904/DTD/svg10.dtd">
<svg version="1.0" xmlns="http://www.w3.org/2000/svg"
 width="1000.000000pt" height="1000.000000pt" viewBox="0 0 1000.000000 1000.000000"
 preserveAspectRatio="xMidYMid meet">

<g transform="translate(0.000000,1000.000000) scale(0.100000,-0.100000)"
fill="#000000" stroke="none">
<path d="M4840 9994 c-260 -12 -506 -38 -740 -80 -1906 -343 -3462 -1791
-3938 -3669 -108 -423 -155 -802 -155 -1245 0 -262 12 -436 44 -675 171 -1267
814 -2406 1814 -3214 790 -639 1707 -1003 2750 -1092 285 -24 709 -13 1025 27
1281 161 2443 816 3266 1839 622 774 990 1709 1075 2730 15 180 15 590 0 770
-86 1032 -455 1961 -1092 2750 -870 1077 -2123 1737 -3499 1844 -147 12 -443
20 -550 15z m354 -44 c398 -18 705 -64 1071 -160 1020 -268 1939 -868 2604
-1700 623 -780 986 -1697 1071 -2705 15 -167 15 -602 1 -770 -121 -1444 -836
-2732 -1996 -3595 -906 -675 -2022 -1018 -3151 -969 -1258 54 -2409 562 -3299
1454 -839 841 -1333 1911 -1435 3110 -15 167 -15 602 0 770 55 652 216 1236
501 1810 800 1616 2419 2675 4214 2754 94 5 177 9 185 9 8 1 113 -3 234 -8z"/>
<path d="M4700 9869 c-840 -50 -1652 -318 -2355 -777 -636 -414 -1184 -990
-1565 -1642 -812 -1392 -875 -3145 -166 -4587 681 -1385 1965 -2369 3461
-2652 1251 -238 2528 11 3580 697 841 548 1515 1367 1876 2280 462 1169 462
2455 0 3624 -361 913 -1035 1732 -1876 2280 -871 568 -1905 840 -2955 777z
m660 -59 c67 -26 138 -79 310 -231 l172 -153 -177 -88 -177 -89 -51 40 c-29
22 -133 103 -232 180 -104 81 -189 141 -202 141 -12 0 -34 -7 -50 -16 -28 -16
-29 -16 -203 86 -96 57 -177 105 -179 107 -3 2 1 9 8 16 19 19 125 25 446 23
224 -2 309 -6 335 -16z m355 -30 c297 -46 521 -99 585 -140 25 -16 62 -46 82
-67 51 -53 310 -397 301 -400 -5 -1 -91 -25 -192 -52 l-184 -50 -17 22 c-10
12 -96 112 -192 222 -150 173 -178 200 -205 203 -18 2 -40 -1 -51 -7 -15 -8
-43 12 -176 131 -195 174 -195 175 49 138z m-1224 -14 c52 -18 428 -227 462
-256 5 -4 -61 -61 -146 -128 l-155 -120 -253 129 c-265 134 -301 146 -334 109
-10 -11 -24 -20 -31 -20 -6 0 -98 30 -204 66 -188 66 -191 67 -173 86 30 29
337 102 643 151 65 11 129 5 191 -17z m2138 -216 c76 -27 190 -72 252 -99 325
-139 325 -140 480 -457 60 -124 109 -227 107 -229 -5 -4 -389 -27 -392 -24 -2
2 -68 118 -147 258 -150 264 -163 280 -213 261 -23 -8 -29 -3 -74 53 -104 132
-202 267 -202 277 0 20 52 9 189 -40z m-3017 19 c58 -13 448 -146 461 -158 12
-12 -241 -297 -261 -293 -9 2 -138 37 -285 77 -209 58 -273 72 -293 65 -13 -5
-24 -13 -24 -17 0 -5 -7 -16 -14 -25 -12 -17 -24 -16 -214 11 -111 15 -205 31
-210 35 -4 4 4 17 18 29 34 29 332 164 511 232 156 59 207 66 311 44z m1618
-175 l150 -117 -73 -50 c-210 -145 -339 -229 -370 -242 -20 -8 -99 -19 -179
-25 -79 -6 -197 -17 -263 -26 -215 -27 -212 -27 -220 -14 -11 18 245 272 265
264 53 -23 60 -20 290 160 124 97 231 174 237 171 7 -2 80 -57 163 -121z
m-875 -31 c96 -48 175 -92 175 -96 0 -11 -326 -342 -361 -368 -15 -10 -105
-41 -201 -68 -96 -28 -227 -69 -291 -91 -65 -23 -128 -40 -142 -38 -23 3 -19
11 78 159 l101 156 41 -5 41 -4 190 220 c104 122 190 221 191 221 2 1 82 -38
178 -86z m1719 -89 c69 -80 124 -149 121 -153 -2 -5 -107 -51 -234 -105 -258
-108 -255 -108 -456 -81 -60 7 -180 19 -266 24 -162 11 -192 16 -186 34 1 5
69 55 150 109 141 96 147 99 169 84 12 -9 32 -16 43 -15 11 0 130 56 265 124
135 68 250 124 256 124 7 1 69 -65 138 -145z m1394 -121 c263 -158 470 -307
512 -368 16 -23 37 -61 46 -84 17 -43 135 -484 130 -488 -6 -6 -380 47 -387
54 -3 5 -46 127 -94 273 -48 146 -96 274 -106 284 -11 12 -30 19 -51 18 l-34
-1 -91 189 c-50 104 -88 191 -85 194 13 14 40 2 160 -71z m-4452 26 c120 -16
220 -31 221 -33 3 -2 -184 -337 -190 -342 -1 -1 -132 9 -292 21 -318 25 -320
25 -347 -32 -13 -28 -15 -28 -133 -35 -66 -3 -159 -9 -207 -13 -75 -5 -88 -3
-88 10 0 40 517 398 638 441 58 21 162 16 398 -17z m506 -29 c100 -28 184 -53
186 -55 2 -2 -63 -104 -145 -227 l-148 -223 -178 -92 c-98 -51 -223 -119 -278
-153 -90 -54 -140 -73 -139 -52 1 4 31 81 68 172 l67 165 40 5 40 5 145 253
c79 138 148 252 153 252 4 0 89 -23 189 -50z m3365 -165 c50 -88 92 -165 92
-171 1 -15 -499 -117 -535 -109 -16 4 -99 30 -184 57 -85 28 -213 65 -284 84
-71 18 -136 40 -144 47 -12 12 10 25 158 87 l171 73 22 -22 c13 -11 34 -21 48
-21 13 0 137 31 274 69 138 38 259 69 270 68 15 -2 45 -45 112 -162z m-1380
-94 c948 -130 1793 -578 2422 -1286 535 -602 864 -1330 968 -2140 25 -199 25
-731 0 -930 -104 -810 -433 -1538 -968 -2140 -638 -718 -1496 -1168 -2464
-1292 -200 -26 -730 -26 -930 0 -1405 180 -2578 1059 -3140 2351 -140 322
-244 708 -292 1081 -26 200 -26 730 0 930 170 1327 967 2455 2152 3048 446
223 881 343 1450 401 22 2 177 2 345 1 240 -3 337 -8 457 -24z m-2744 -112
c123 -8 177 -15 173 -23 -2 -6 -43 -108 -91 -226 -48 -118 -95 -228 -104 -244
-9 -15 -81 -80 -161 -144 -80 -64 -185 -153 -235 -197 -79 -72 -134 -107 -135
-87 0 4 14 87 32 184 l33 177 31 6 c18 3 36 11 42 18 5 6 49 131 97 277 48
146 90 268 92 273 2 4 14 5 26 3 12 -3 102 -10 200 -17z m4188 -61 l26 -32
269 18 c148 10 280 19 294 20 24 1 28 -9 87 -179 34 -99 62 -186 62 -192 1
-19 -499 -17 -551 1 -20 7 -96 47 -170 89 -73 42 -187 102 -253 133 -105 51
-144 76 -145 94 0 3 78 21 173 41 94 20 174 37 177 38 3 1 17 -13 31 -31z
m-4491 -5 c0 -14 -112 -348 -119 -356 -6 -6 -525 -77 -567 -77 -22 0 -46 -27
-53 -60 l-7 -34 -199 -52 c-110 -29 -202 -50 -204 -48 -21 21 172 240 384 437
139 128 173 149 275 167 123 20 490 37 490 23z m5707 -65 c187 -161 456 -437
489 -500 8 -16 22 -59 29 -95 15 -72 42 -499 32 -509 -6 -6 -346 103 -360 115
-4 4 -23 133 -42 287 -19 153 -39 289 -45 301 -5 12 -22 25 -37 29 -15 3 -33
7 -38 9 -6 1 -32 88 -59 191 -27 104 -51 195 -53 202 -11 27 38 10 84 -30z
m-528 -378 c5 -17 20 -34 33 -38 13 -5 146 -24 296 -42 254 -31 273 -35 277
-54 11 -53 46 -368 41 -373 -6 -6 -428 71 -486 89 -41 12 -100 55 -225 163
-49 42 -135 111 -190 152 -176 132 -175 133 59 133 l184 0 11 -30z m-5399 8
c0 -24 -89 -474 -98 -499 -11 -28 -65 -98 -165 -214 -38 -44 -103 -125 -144
-180 -132 -176 -133 -175 -133 59 l0 184 30 11 c17 5 34 20 38 33 5 13 24 145
42 293 18 149 34 272 37 275 4 4 319 47 366 49 15 1 27 -4 27 -11z m-450 -120
c-1 -38 -51 -383 -57 -388 -4 -4 -127 -47 -273 -95 -146 -48 -274 -96 -284
-106 -12 -11 -19 -30 -18 -51 l1 -34 -190 -91 c-207 -100 -224 -102 -179 -20
45 82 190 310 267 420 96 138 144 186 214 220 54 25 519 155 519 145z m7046
-220 c78 -99 277 -395 330 -492 53 -98 55 -164 14 -456 -17 -124 -33 -226 -34
-228 -3 -2 -338 187 -342 192 0 0 9 132 21 291 25 318 24 320 -32 347 -28 13
-28 15 -35 133 -3 66 -9 159 -13 208 -8 113 4 114 91 5z m-793 -180 c136 -25
177 -36 177 -48 0 -8 6 -26 13 -39 10 -21 54 -39 287 -116 261 -87 275 -93
273 -116 -1 -13 -7 -103 -13 -199 -7 -96 -13 -176 -14 -177 -3 -3 -461 184
-484 198 -13 8 -76 79 -140 159 -64 80 -153 186 -197 235 -72 79 -107 134 -87
135 4 0 87 -14 185 -32z m-6383 -325 c-1 -186 -5 -268 -14 -295 -7 -20 -47
-96 -89 -170 -42 -73 -102 -187 -133 -253 -51 -105 -76 -144 -94 -145 -3 0
-22 80 -42 178 l-36 177 31 26 31 26 -18 269 c-10 148 -19 280 -20 294 -1 24
9 28 179 87 99 34 186 62 193 62 9 1 12 -57 12 -256z m-411 -159 c7 -107 12
-197 10 -198 -2 -2 -118 -68 -258 -147 -264 -150 -280 -163 -261 -213 8 -23 3
-29 -53 -74 -132 -104 -267 -202 -277 -202 -5 0 -10 11 -10 25 0 31 84 265
149 416 139 324 140 325 453 479 123 60 226 110 229 110 3 0 11 -88 18 -196z
m8044 -62 c31 -34 182 -374 251 -566 39 -107 44 -165 25 -258 -13 -58 -146
-448 -158 -461 -12 -12 -296 241 -293 261 1 10 36 138 77 286 79 286 80 299
30 326 -22 12 -26 19 -21 45 3 16 15 100 26 185 29 220 29 220 63 182z m-761
-105 l157 -62 3 -40 3 -40 240 -138 c132 -76 246 -142 254 -146 12 -7 6 -41
-38 -197 -28 -103 -53 -190 -56 -192 -2 -2 -104 63 -227 145 l-223 148 -92
178 c-51 98 -119 223 -153 278 -61 102 -76 147 -42 135 9 -4 88 -35 174 -69z
m-7283 -381 c33 -162 50 -264 46 -282 -4 -16 -29 -96 -55 -179 -27 -82 -65
-210 -84 -284 -20 -74 -42 -141 -49 -149 -12 -12 -25 11 -87 158 l-73 171 22
22 c11 13 21 34 21 48 0 13 -31 139 -70 279 -38 140 -70 261 -70 270 1 14 310
198 336 199 6 1 33 -107 63 -253z m-341 -436 c-13 -10 -113 -96 -223 -192
-173 -150 -200 -178 -203 -205 -2 -18 1 -40 7 -51 8 -15 -12 -43 -131 -176
-177 -198 -176 -199 -133 78 32 205 91 470 116 523 34 71 95 129 293 279 l191
144 53 -190 53 -191 -23 -19z m7967 88 l140 -93 -3 -41 -3 -40 212 -185 c117
-101 216 -187 221 -190 10 -7 -162 -359 -175 -359 -10 0 -344 327 -368 361
-10 14 -43 111 -73 215 -30 104 -70 234 -90 289 -20 55 -36 113 -36 128 0 33
-13 40 175 -85z m814 -209 c44 -176 89 -411 98 -514 8 -99 -21 -173 -158 -408
-62 -105 -116 -196 -119 -200 -4 -5 -61 61 -127 146 l-121 154 134 265 c89
178 131 272 127 286 -3 11 -14 28 -24 38 -10 9 -19 23 -19 30 0 6 30 98 66
204 66 188 67 191 86 173 12 -12 33 -76 57 -174z m-8704 -209 c107 -254 107
-253 80 -455 -7 -60 -19 -180 -24 -266 -11 -162 -16 -192 -34 -186 -5 1 -55
69 -109 150 -96 141 -99 147 -84 169 9 12 16 30 16 40 0 10 -56 131 -125 268
-69 137 -125 254 -125 259 0 16 292 263 301 254 5 -5 51 -110 104 -233z m-258
-503 c-14 -18 -95 -122 -181 -232 -91 -117 -156 -209 -156 -222 0 -12 7 -34
16 -50 16 -28 15 -29 -88 -205 -56 -98 -106 -178 -110 -178 -4 0 -13 10 -20
23 -10 17 -13 108 -13 377 0 396 0 393 72 494 20 28 102 125 182 214 l145 164
88 -177 89 -177 -24 -31z m8337 144 c115 -115 127 -131 117 -149 -6 -11 -11
-29 -11 -40 0 -10 79 -119 175 -243 96 -123 173 -230 170 -237 -3 -7 -57 -80
-121 -162 l-117 -150 -59 88 c-175 256 -219 322 -233 355 -8 20 -19 98 -25
179 -9 124 -25 264 -46 415 -7 43 -1 73 13 73 5 0 66 -58 137 -129z m748 -193
c10 -18 13 -109 13 -378 0 -396 0 -393 -72 -494 -20 -28 -102 -125 -182 -214
l-145 -164 -88 177 -89 177 24 31 c14 18 95 122 181 232 90 116 156 209 156
222 0 12 -7 34 -16 50 -16 28 -15 29 88 205 56 98 106 178 110 178 4 0 13 -10
20 -22z m-8891 -319 c43 -64 86 -132 94 -152 8 -20 19 -98 25 -179 6 -79 17
-197 26 -263 27 -215 27 -212 14 -220 -18 -11 -272 245 -264 265 23 53 20 60
-160 290 -97 124 -174 231 -171 238 3 7 57 80 121 162 l117 150 59 -88 c33
-48 96 -139 139 -203z m-303 -283 l120 -153 -134 -265 c-89 -178 -131 -272
-127 -286 3 -11 14 -28 24 -38 10 -9 19 -23 19 -30 0 -6 -30 -98 -66 -204 -66
-188 -67 -191 -86 -173 -33 34 -139 502 -155 688 -8 100 20 173 162 414 65
111 119 201 121 201 1 0 56 -69 122 -154z m8484 -9 c96 -141 99 -147 84 -169
-9 -12 -16 -30 -16 -40 0 -10 56 -131 125 -268 69 -137 125 -254 125 -259 0
-16 -292 -263 -301 -254 -5 5 -51 110 -104 233 -107 254 -107 253 -80 455 7
61 19 180 24 266 11 162 16 192 34 186 5 -1 55 -69 109 -150z m-8191 -434 c94
-93 180 -180 190 -194 10 -15 41 -105 68 -201 28 -96 69 -227 91 -291 23 -65
40 -128 38 -142 -3 -23 -11 -19 -159 78 l-156 101 5 41 4 40 -213 185 c-117
102 -217 188 -221 191 -10 7 162 359 175 359 4 0 84 -75 178 -167z m8889 77
c0 -101 -106 -634 -142 -709 -33 -68 -110 -141 -303 -286 l-180 -135 -23 83
c-12 45 -35 130 -51 190 l-29 107 77 68 c42 37 143 125 224 195 129 112 147
131 147 158 0 17 -4 38 -9 48 -8 14 17 47 131 175 143 160 157 170 158 106z
m-820 -430 l73 -171 -22 -22 c-11 -13 -21 -34 -21 -48 0 -13 31 -139 70 -279
38 -140 70 -262 70 -270 0 -13 -298 -189 -334 -198 -17 -4 -120 494 -111 534
4 16 29 97 55 179 27 83 65 210 84 283 30 114 48 162 61 162 2 0 36 -77 75
-170z m-8218 -74 l126 -108 -25 -92 c-14 -50 -49 -178 -78 -284 -41 -148 -52
-199 -45 -218 5 -13 13 -24 17 -24 5 0 16 -7 25 -14 17 -12 16 -24 -11 -214
-15 -111 -31 -205 -35 -209 -3 -4 -15 2 -26 13 -26 26 -175 354 -240 529 -71
192 -70 223 25 500 38 110 75 215 82 233 16 39 -2 50 185 -112z m373 -374
l220 -147 92 -178 c51 -98 119 -223 153 -278 61 -102 76 -147 43 -135 -10 4
-89 35 -175 69 l-157 62 -3 40 -3 40 -240 138 c-132 76 -246 142 -254 146 -12
7 -13 16 -4 47 6 22 30 108 53 192 23 83 45 152 49 151 3 0 105 -66 226 -147z
m8465 -27 c0 -48 -135 -399 -229 -596 -65 -135 -104 -167 -376 -300 -125 -61
-228 -109 -229 -107 -5 5 -29 389 -25 392 2 2 118 68 258 147 265 150 281 163
261 214 -9 23 -3 30 88 99 53 41 126 97 162 125 74 57 90 61 90 26z m-887
-290 l36 -170 -31 -26 -32 -26 18 -269 c10 -148 19 -280 20 -294 1 -24 -9 -28
-183 -87 -101 -35 -187 -60 -192 -57 -15 9 -10 503 5 546 7 20 47 96 89 170
42 73 102 187 133 253 55 114 81 152 95 137 4 -4 23 -83 42 -177z m-7697 -96
c88 -50 164 -95 169 -99 7 -6 3 -103 -11 -297 -24 -317 -23 -324 35 -344 l28
-10 7 -152 c3 -84 9 -178 12 -209 9 -82 -11 -77 -92 25 -78 98 -277 394 -330
491 -53 97 -55 165 -15 450 17 121 31 223 31 228 0 4 2 8 4 8 2 0 75 -41 162
-91z m459 -307 c121 -48 231 -95 243 -103 13 -8 76 -79 140 -159 64 -80 153
-185 197 -235 72 -79 107 -134 87 -135 -4 0 -87 14 -184 32 l-177 33 -6 31
c-3 18 -11 36 -18 42 -6 5 -131 49 -277 97 -146 48 -268 90 -271 94 -3 3 0 76
7 161 7 85 13 175 13 199 1 30 5 42 14 38 6 -3 111 -46 232 -95z m6825 -286
l0 -184 -30 -11 c-17 -5 -34 -20 -38 -33 -5 -13 -24 -146 -42 -296 -31 -254
-35 -273 -54 -277 -53 -11 -368 -46 -373 -41 -6 6 71 425 89 486 12 41 55 99
163 225 42 50 111 135 152 190 132 176 133 175 133 -59z m930 118 c0 -17 -124
-225 -213 -359 -163 -244 -216 -301 -316 -341 -43 -17 -484 -135 -488 -130 -6
6 47 380 54 387 5 3 127 46 273 94 146 48 274 96 284 106 12 11 19 30 18 51
l-1 34 187 90 c103 50 190 89 195 87 4 -2 7 -11 7 -19z m-7765 -270 c93 -31
173 -60 178 -63 6 -6 77 -525 77 -567 0 -22 27 -46 60 -53 l34 -7 52 -199 c29
-110 51 -202 48 -204 -31 -31 -528 448 -575 554 -24 55 -37 142 -49 330 -12
190 -13 265 -3 265 5 0 84 -25 178 -56z m500 -208 c127 -25 241 -49 255 -54
29 -11 99 -65 215 -165 44 -38 125 -103 180 -144 176 -132 175 -133 -59 -133
l-184 0 -11 30 c-5 17 -20 34 -33 38 -13 5 -146 24 -296 42 -254 31 -273 35
-277 54 -5 24 -45 347 -45 364 0 17 -1 17 255 -32z m5794 -235 c-26 -139 -37
-181 -49 -181 -8 0 -26 -6 -39 -13 -21 -10 -39 -54 -116 -287 -87 -261 -93
-275 -116 -273 -13 1 -103 7 -199 13 -96 7 -176 13 -177 14 -3 3 184 461 198
484 8 13 79 76 159 140 80 64 186 153 236 198 78 71 119 98 133 88 1 -2 -12
-84 -30 -183z m931 -60 c0 -47 -450 -509 -542 -557 -16 -8 -59 -22 -95 -29
-72 -15 -499 -42 -509 -32 -6 6 103 346 115 360 6 6 525 77 567 77 22 0 46 27
53 60 l7 34 194 52 c107 28 198 52 203 53 4 0 7 -8 7 -18z m-6655 -136 c104
-14 192 -28 196 -32 3 -5 46 -127 94 -273 48 -146 96 -274 106 -284 11 -12 30
-19 51 -18 l33 1 92 -190 c100 -207 102 -224 20 -179 -171 95 -507 320 -573
386 -59 58 -86 124 -149 365 -30 117 -58 222 -61 232 -3 9 -3 17 -1 17 2 0 89
-11 192 -25z m827 -119 c20 -7 96 -47 170 -89 73 -42 187 -102 253 -133 114
-55 152 -81 137 -95 -4 -4 -83 -23 -177 -42 l-170 -36 -26 31 -26 32 -269 -18
c-148 -10 -280 -19 -294 -20 -24 -1 -28 9 -87 179 -34 99 -62 186 -62 193 -1
18 499 16 551 -2z m4318 7 c-1 -5 -31 -82 -68 -173 l-67 -165 -40 -5 -40 -5
-138 -240 c-76 -132 -142 -246 -146 -254 -7 -12 -41 -6 -197 38 -103 28 -190
53 -192 56 -2 2 63 104 145 227 l148 223 185 96 c102 53 226 121 275 152 81
50 136 70 135 50z m-3440 -414 c85 -28 213 -66 284 -85 71 -18 136 -40 144
-47 12 -12 -11 -25 -158 -87 l-171 -72 -23 21 c-12 11 -33 21 -47 21 -13 0
-140 -32 -283 -71 -142 -38 -264 -68 -271 -65 -12 4 -195 318 -195 334 0 15
481 112 525 106 22 -3 110 -28 195 -55z m2733 33 c-10 -16 -56 -87 -102 -159
l-85 -130 -41 5 -41 4 -185 -213 c-101 -117 -187 -217 -190 -221 -7 -10 -359
162 -359 175 0 11 326 342 361 368 14 10 111 43 215 73 104 30 232 70 284 89
52 19 110 36 128 36 l34 1 -19 -28z m-3403 -268 c151 -267 164 -283 215 -264
22 8 29 3 88 -73 131 -169 187 -246 187 -256 0 -21 -52 -10 -191 40 -153 55
-294 113 -430 178 -136 65 -167 104 -300 376 -61 125 -109 228 -107 230 4 3
264 21 338 23 l55 2 145 -256z m4950 241 c0 -8 -37 -44 -82 -81 -101 -79 -397
-278 -492 -330 -98 -53 -165 -55 -456 -14 -123 17 -226 32 -227 34 -3 2 185
338 191 342 0 0 132 -9 291 -21 318 -24 320 -24 347 32 l13 28 175 11 c256 16
240 16 240 -1z m-2294 -166 c10 -17 -247 -271 -266 -263 -53 23 -60 20 -290
-160 -124 -97 -231 -174 -238 -171 -7 3 -80 57 -162 121 l-150 117 88 59 c256
175 322 219 355 233 20 8 98 19 179 25 138 10 383 37 403 45 22 8 74 4 81 -6z
m-1231 -14 c61 -7 180 -19 266 -24 162 -11 192 -16 186 -34 -1 -5 -69 -55
-150 -109 -141 -96 -147 -99 -169 -84 -12 9 -30 16 -40 16 -10 0 -131 -56
-268 -125 -137 -69 -254 -125 -259 -125 -16 0 -263 292 -254 301 5 5 110 51
233 104 254 107 253 107 455 80z m-610 -358 c166 -194 194 -222 222 -225 18
-2 40 1 51 7 15 8 43 -12 176 -131 184 -164 185 -169 27 -149 -138 18 -347 57
-491 92 -133 32 -187 59 -252 126 -51 53 -310 397 -301 400 42 13 369 102 373
102 3 -1 91 -100 195 -222z m2583 99 c213 -59 278 -73 298 -66 13 5 24 13 24
17 0 5 7 16 14 25 12 17 24 16 214 -11 111 -15 205 -31 209 -35 4 -3 -2 -15
-13 -26 -26 -26 -354 -175 -527 -239 -148 -55 -197 -61 -299 -40 -58 13 -448
146 -461 158 -10 9 243 300 257 295 6 -2 134 -37 284 -78z m-1723 -236 c135
-105 239 -180 252 -180 12 0 34 7 50 16 28 16 29 15 205 -87 98 -57 178 -107
178 -111 0 -4 -10 -13 -22 -20 -18 -10 -109 -13 -378 -13 -396 0 -393 0 -494
72 -28 20 -125 102 -214 182 l-164 145 174 87 c95 49 175 88 178 88 3 0 109
-80 235 -179z m857 40 c154 -78 269 -130 286 -130 16 0 37 9 47 20 10 11 24
20 31 20 6 0 98 -30 204 -66 188 -66 191 -67 173 -86 -34 -34 -504 -139 -688
-154 -56 -5 -83 -2 -135 16 -88 29 -484 260 -471 273 6 6 75 61 153 123 79 62
143 113 143 113 0 1 116 -57 257 -129z"/>
<path d="M4785 8839 c-1399 -76 -2656 -923 -3260 -2194 -493 -1035 -493 -2255
0 -3290 472 -994 1354 -1744 2406 -2049 799 -231 1669 -195 2439 101 1661 639
2668 2321 2444 4083 -139 1101 -762 2098 -1694 2715 -590 389 -1215 595 -1930
635 -191 11 -201 11 -405 -1z m702 -68 c1009 -137 1893 -645 2518 -1446 413
-530 673 -1157 767 -1848 19 -138 22 -208 22 -477 0 -349 -14 -497 -74 -781
-206 -974 -783 -1826 -1610 -2379 -499 -333 -1050 -538 -1665 -617 -199 -25
-691 -25 -890 0 -1034 133 -1927 640 -2560 1452 -682 875 -944 2016 -714 3109
332 1577 1643 2787 3237 2986 223 28 228 28 537 25 212 -3 317 -9 432 -24z"/>
<path d="M5696 6323 c-4 -5 -114 -12 -244 -16 -352 -12 -427 -12 -537 -3 -89
8 -102 7 -115 -8 -24 -29 0 -48 90 -70 111 -27 133 -50 234 -241 77 -146 79
-152 77 -216 -2 -60 1 -71 34 -119 25 -37 43 -85 65 -167 16 -64 43 -139 59
-167 24 -43 29 -63 28 -113 -2 -91 45 -155 165 -225 31 -18 62 -44 68 -57 6
-14 25 -41 41 -62 35 -45 50 -99 26 -99 -9 0 -43 16 -77 36 -33 19 -65 32 -70
29 -21 -13 -9 -91 26 -175 20 -47 38 -98 40 -115 11 -66 17 -79 62 -127 l47
-50 4 -96 c2 -80 7 -101 26 -127 33 -45 52 -100 80 -242 14 -70 33 -152 42
-180 14 -47 19 -53 49 -59 55 -10 77 1 98 48 41 97 69 185 106 343 11 50 34
126 50 170 15 44 33 103 39 131 9 47 36 122 144 414 20 52 43 122 52 155 9 33
23 85 32 115 28 101 38 125 66 140 21 11 31 12 44 4 15 -10 17 -24 15 -80 -3
-62 1 -76 33 -138 25 -50 35 -83 35 -116 0 -34 8 -59 31 -95 25 -39 29 -53 20
-65 -36 -50 -36 -56 12 -114 54 -67 71 -113 64 -175 -4 -38 0 -57 24 -106 16
-33 29 -75 29 -95 0 -47 21 -128 59 -229 17 -47 31 -103 31 -126 0 -31 7 -48
30 -73 30 -33 36 -59 21 -97 -13 -31 -2 -45 36 -45 60 0 102 62 137 201 18 70
61 212 107 354 58 180 69 214 144 450 43 132 111 342 151 467 41 125 78 251
81 280 4 29 26 98 51 153 24 55 57 147 73 205 16 58 33 114 38 125 19 45 70
183 81 216 15 49 66 125 98 147 15 10 60 31 100 47 66 26 101 49 91 59 -2 3
-42 0 -89 -6 -63 -8 -109 -7 -175 2 -78 10 -98 10 -154 -5 -53 -13 -72 -14
-113 -5 -28 7 -71 9 -101 6 -93 -12 -101 -34 -20 -56 177 -48 200 -91 144
-280 -13 -41 -26 -94 -30 -116 -4 -23 -19 -66 -34 -95 -14 -30 -31 -76 -37
-104 -6 -27 -22 -77 -35 -110 -28 -69 -55 -181 -55 -229 0 -21 -9 -43 -26 -62
-55 -62 -57 -68 -84 -237 -24 -143 -51 -249 -83 -318 -18 -41 -42 -94 -52
-119 -22 -53 -62 -100 -86 -100 -28 0 -38 23 -49 106 -32 242 -53 339 -80 374
-19 24 -30 53 -34 90 -4 30 -27 126 -52 213 -25 88 -50 196 -56 240 -10 71
-17 90 -55 143 -42 60 -43 64 -43 140 0 52 -9 112 -25 173 -26 100 -31 164
-16 205 11 28 80 71 130 80 48 9 73 33 60 57 -8 15 -14 17 -35 9 -14 -6 -100
-10 -192 -9 -92 1 -192 -4 -222 -10 -30 -6 -107 -14 -172 -18 -116 -6 -116 -6
-140 20 -22 24 -27 25 -69 16 -71 -15 -75 -18 -53 -33 10 -7 51 -30 90 -50 39
-20 79 -45 88 -55 10 -11 30 -57 46 -103 16 -45 61 -175 101 -288 39 -113 76
-225 82 -250 11 -51 4 -82 -62 -273 -23 -66 -41 -129 -41 -142 0 -13 -13 -48
-29 -78 -16 -30 -36 -84 -44 -119 -20 -81 -53 -209 -60 -228 -3 -8 -18 -55
-33 -103 -27 -87 -58 -128 -83 -112 -22 13 -72 145 -97 255 -26 119 -41 164
-84 252 -23 48 -44 107 -47 130 -3 24 -10 48 -15 55 -5 7 -14 45 -19 85 -6 51
-30 125 -81 253 -61 154 -73 192 -79 265 -5 64 -16 106 -43 170 -39 92 -47
172 -23 220 7 14 35 39 62 57 77 49 105 73 105 89 0 15 -31 19 -44 7z"/>
<path d="M2899 6294 c-22 -26 -3 -46 74 -78 108 -45 109 -46 92 -128 -7 -36
-21 -88 -30 -115 -26 -77 -115 -293 -147 -356 -28 -56 -36 -87 -62 -228 -7
-36 -35 -115 -63 -175 -66 -142 -74 -165 -123 -319 -38 -118 -122 -371 -221
-662 -63 -187 -170 -415 -217 -466 -15 -16 -55 -51 -89 -79 -110 -87 -83 -108
117 -90 148 14 263 15 423 2 72 -5 128 -5 143 0 43 17 29 42 -42 79 -36 19
-86 52 -111 75 -39 35 -46 48 -50 90 -8 65 23 232 64 355 38 114 96 251 113
266 16 14 70 17 436 25 380 9 419 8 436 -6 9 -9 20 -26 24 -37 9 -29 194 -286
218 -302 11 -8 41 -15 66 -16 74 -1 205 -33 208 -51 2 -9 -6 -19 -17 -23 -14
-4 -21 -15 -21 -31 0 -32 -17 -30 -60 6 -26 23 -44 30 -78 30 -40 0 -43 -2
-36 -22 9 -32 26 -63 117 -223 125 -220 224 -362 313 -452 109 -110 132 -123
217 -123 64 0 71 -2 97 -30 29 -31 58 -38 77 -19 8 8 22 5 51 -10 72 -36 229
-24 263 20 17 22 16 23 -45 44 -63 22 -100 42 -206 108 -56 36 -64 38 -90 27
-16 -7 -36 -10 -45 -6 -20 7 -19 40 1 61 9 8 14 21 11 28 -3 6 -42 59 -88 117
-72 91 -219 310 -219 326 0 3 -8 18 -19 32 -81 115 -290 530 -451 897 -5 11
-27 77 -49 148 -22 70 -56 160 -76 200 -38 75 -76 177 -115 307 -12 41 -28 95
-36 120 -18 60 -51 222 -59 290 -9 81 -34 188 -55 239 -10 26 -24 67 -30 93
-10 40 -17 49 -44 57 -17 5 -149 11 -294 14 -205 3 -265 1 -273 -9z m342 -654
c4 -14 28 -83 54 -155 25 -71 60 -168 76 -215 17 -47 37 -103 44 -125 7 -22
31 -89 53 -150 22 -60 45 -126 52 -145 6 -19 15 -44 20 -55 20 -46 21 -63 4
-69 -21 -8 -627 -7 -667 1 -36 7 -44 28 -24 62 9 15 23 60 31 100 8 40 24 87
36 105 11 19 20 42 20 53 0 90 240 628 277 621 9 -2 20 -14 24 -28z"/>
</g>
</svg>
