<svg width="4607" height="3485" viewBox="0 0 4607 3485" fill="none" xmlns="http://www.w3.org/2000/svg">
<g filter="url(#filter0_f_115_4)">
<path d="M898.077 2070.31L1488.55 2609.01L1650.16 2355.76L2656.2 2739.14L2273.51 2109.49C2535.17 1854.37 3054.56 1344.12 3038.89 1344.12C3023.21 1344.12 2941.41 773.237 2902.46 487.796C2703.54 513.681 2299.26 573.148 2273.51 603.931C2241.33 642.41 1209.4 597.635 1170.23 603.931C1138.88 608.968 -92.7978 1380.97 430.744 1597.38L1054.8 1861.83L898.077 2070.31Z" fill="#60A5FA" fill-opacity="0.76" stroke="black"/>
<path d="M605.647 2698.78C508.635 2590.57 605.647 1758.99 605.647 1758.99C605.647 1758.99 775.18 1534.53 833.72 1368.82C864.749 1280.98 1716.57 1155.36 1875.56 1057.26C1884.01 1016.5 1894.52 997.323 1900.63 1024.61C1902.96 1035.06 1893.84 1045.98 1875.56 1057.26C1852.63 1167.91 1844.89 1437.67 1981.78 1368.82C2210.23 1253.91 1983.15 936.529 2137.79 732.871C2487.82 271.911 3685.8 674.337 3590.89 1024.61C3495.97 1374.88 3278.95 1689.65 3292.85 2140.49C3299.67 2361.69 3377.5 2653.3 3390.1 2698.78C3402.69 2744.25 2801.49 3016.63 2500.89 3152.82C2200.29 3289.01 2300.22 2936.75 2137.79 2847.79C1833.05 2680.89 1733.49 3258.06 1523.54 2981.21C1405.41 2825.44 1055.59 3040.86 1086.28 2847.79C1109.21 2703.57 702.66 2806.98 605.647 2698.78Z" fill="#4F46E5" fill-opacity="0.6"/>
<path d="M605.647 2698.78C508.635 2590.57 605.647 1758.99 605.647 1758.99C605.647 1758.99 775.18 1534.53 833.72 1368.82C868.317 1270.88 1923.3 1125.97 1900.63 1024.61C1877.95 923.246 1794.46 1463.03 1981.78 1368.82C2210.23 1253.91 1983.15 936.529 2137.79 732.871C2487.82 271.911 3685.8 674.337 3590.89 1024.61C3495.97 1374.88 3278.95 1689.65 3292.85 2140.49C3299.67 2361.69 3377.5 2653.3 3390.1 2698.78C3402.69 2744.25 2801.49 3016.63 2500.89 3152.82C2200.29 3289.01 2300.22 2936.75 2137.79 2847.79C1833.05 2680.89 1733.49 3258.06 1523.54 2981.21C1405.41 2825.44 1055.59 3040.86 1086.28 2847.79C1109.21 2703.57 702.66 2806.98 605.647 2698.78Z" stroke="black"/>
<path d="M1807.58 2974.21C2623.32 2928.04 4264.89 2838.63 4305.19 2850.38L4050.53 2573.33V2005.25L3358.61 301L2506.49 752.948L2186.07 1437.17L1443.08 2122.09L1807.58 2974.21Z" fill="#694BC0" fill-opacity="0.66" stroke="black"/>
</g>
<defs>
<filter id="filter0_f_115_4" x="0.805664" y="0.298828" width="4605.96" height="3483.96" filterUnits="userSpaceOnUse" color-interpolation-filters="sRGB">
<feFlood flood-opacity="0" result="BackgroundImageFix"/>
<feBlend mode="normal" in="SourceGraphic" in2="BackgroundImageFix" result="shape"/>
<feGaussianBlur stdDeviation="150" result="effect1_foregroundBlur_115_4"/>
</filter>
</defs>
</svg>
