<svg width="559" height="702" viewBox="0 0 559 702" fill="none" xmlns="http://www.w3.org/2000/svg">
<circle cx="449.638" cy="67.5" r="30.5" fill="black"/>
<path d="M94.2148 326.277C121.138 281.5 159.62 262 159.62 262L173.875 269.588C173.875 269.588 146.16 287.801 143.269 306.637C138.851 335.41 165.584 357.97 194.694 357.97H343.818C394.816 357.97 445.246 381.914 461.237 430.339C468.162 451.312 472.708 474.825 470.638 498C466.874 540.147 444.186 591.406 408.138 624.5C373.34 656.448 320.617 674 320.617 674L308.039 661.948C308.039 661.948 363.714 634 390.214 597.5C406.97 574.421 414.123 536.048 408.138 508C399.814 468.988 362.891 444.529 323.047 446.429L218.27 451.424C169.158 453.766 110.017 450.254 86.6385 407C70.1429 376.48 76.234 356.182 94.2148 326.277Z" fill="black" stroke="black"/>
<path fill-rule="evenodd" clip-rule="evenodd" d="M258.638 295C346.176 295 417.138 235.23 417.138 161.5C417.138 87.77 346.176 28 258.638 28C171.101 28 100.138 87.77 100.138 161.5C100.138 235.23 171.101 295 258.638 295ZM202.266 83.3915C194.752 104.99 192 132.079 192 161.486C192 190.894 194.752 217.982 202.266 239.581C210.267 262.575 235.153 271.972 259.5 271.972C283.847 271.972 308.733 262.575 316.734 239.581C324.248 217.982 327 190.894 327 161.486C327 132.079 324.248 104.99 316.734 83.3915C308.733 60.397 283.847 51 259.5 51C235.153 51 210.267 60.397 202.266 83.3915Z" fill="black"/>
</svg>
